<?xml version="1.0" encoding="windows-1252"?>
<!-- Generator: Adobe Illustrator 15.1.0, SVG Export Plug-In . SVG Version: 6.00 Build 0)  -->
<!DOCTYPE svg PUBLIC "-//W3C//DTD SVG 1.1//EN" "http://www.w3.org/Graphics/SVG/1.1/DTD/svg11.dtd">
<svg version="1.1" id="Layer_1" xmlns="http://www.w3.org/2000/svg" xmlns:xlink="http://www.w3.org/1999/xlink" x="0px" y="0px" width="140px" height="140px" viewBox="0 0 140 140" style="enable-background:new 0 0 140 140;" xml:space="preserve">
<g>
	<path style="fill:#F2F2F2;" d="M70,130c-33.084,0-60-26.916-60-60s26.916-60,60-60s60,26.916,60,60S103.084,130,70,130z"/>
	<circle style="fill:#712C26;" cx="70" cy="70" r="58.064"/>
	<g>
		<g>
			<path style="fill:#E6D78A;" d="M73.322,106.468c-21.903,0-39.723-17.818-39.723-39.722c0-21.257,16.646-38.665,37.898-39.632     c0.396-0.021,0.738,0.191,0.91,0.533c0.171,0.342,0.125,0.752-0.117,1.048c-5.527,6.732-8.572,15.243-8.572,23.959     c0,20.836,16.95,37.787,37.785,37.787c0.364,0,0.722-0.024,1.079-0.05c0.218-0.016,0.436-0.028,0.654-0.04     c0.374-0.03,0.736,0.191,0.908,0.533c0.173,0.342,0.126,0.752-0.117,1.048C96.447,101.17,85.254,106.468,73.322,106.468z"/>
		</g>
		<path style="fill:#BFB272;" d="M79.127,100.661c-21.902,0-39.723-17.818-39.723-39.722c0-9.47,3.311-18.17,8.853-24.996    C39.29,43.222,33.6,54.324,33.6,66.746c0,21.902,17.818,39.722,39.723,39.722c11.933,0,23.125-5.298,30.707-14.534    c0.031-0.036,0.052-0.082,0.075-0.123C97.096,97.496,88.336,100.661,79.127,100.661z"/>
	</g>
</g>
<script xmlns=""/></svg>